<mxfile host="app.diagrams.net" modified="2023-12-01T21:27:07.388Z" agent="Mozilla/5.0 (X11; Linux x86_64; rv:109.0) Gecko/20100101 Firefox/112.0" version="22.1.5" etag="NN09bc1woLpwiEo9yp_k" type="github">
  <diagram name="Страница — 1" id="i20b3vi7eehubXPVE3w3">
    <mxGraphModel>
      <root>
        <mxCell id="0" />
        <mxCell id="1" parent="0" />
      </root>
    </mxGraphModel>
  </diagram>
</mxfile>
